<?xml version="1.0" encoding="UTF-8"?>
<svg xmlns="http://www.w3.org/2000/svg" xmlns:xlink="http://www.w3.org/1999/xlink" width="75px" height="80px" viewBox="0 0 195 80" version="1.1">
<g id="surface1">
<path style=" stroke:none;fill-rule:nonzero;fill:rgb(0%,0%,0%);fill-opacity:1;" d="M 35.707031 10.3125 C 33.425781 13.015625 29.773438 15.148438 26.117188 14.84375 C 25.664062 11.1875 27.449219 7.308594 29.542969 4.910156 C 31.828125 2.132812 35.820312 0.152344 39.054688 0 C 39.4375 3.804688 37.953125 7.535156 35.707031 10.3125 M 39.019531 15.566406 C 33.730469 15.261719 29.199219 18.574219 26.691406 18.574219 C 24.140625 18.574219 20.296875 15.71875 16.113281 15.792969 C 10.671875 15.871094 5.609375 18.953125 2.832031 23.863281 C -2.875 33.683594 1.347656 48.222656 6.867188 56.214844 C 9.566406 60.171875 12.800781 64.511719 17.0625 64.359375 C 21.097656 64.207031 22.695312 61.730469 27.566406 61.730469 C 32.472656 61.730469 33.882812 64.359375 38.140625 64.28125 C 42.554688 64.207031 45.332031 60.324219 48.035156 56.367188 C 51.117188 51.875 52.375 47.496094 52.449219 47.269531 C 52.375 47.191406 43.925781 43.957031 43.851562 34.214844 C 43.773438 26.070312 50.507812 22.1875 50.8125 21.960938 C 47.007812 16.328125 41.074219 15.71875 39.019531 15.566406 M 69.570312 4.527344 L 69.570312 63.863281 L 78.78125 63.863281 L 78.78125 43.578125 L 91.527344 43.578125 C 103.167969 43.578125 111.351562 35.585938 111.351562 24.015625 C 111.351562 12.445312 103.320312 4.527344 91.832031 4.527344 Z M 78.78125 12.292969 L 89.394531 12.292969 C 97.386719 12.292969 101.953125 16.554688 101.953125 24.054688 C 101.953125 31.550781 97.386719 35.851562 89.355469 35.851562 L 78.78125 35.851562 Z M 128.167969 64.320312 C 133.953125 64.320312 139.316406 61.390625 141.75 56.746094 L 141.941406 56.746094 L 141.941406 63.863281 L 150.464844 63.863281 L 150.464844 34.328125 C 150.464844 25.765625 143.617188 20.246094 133.078125 20.246094 C 123.296875 20.246094 116.066406 25.84375 115.800781 33.53125 L 124.097656 33.53125 C 124.78125 29.875 128.167969 27.480469 132.808594 27.480469 C 138.441406 27.480469 141.597656 30.105469 141.597656 34.9375 L 141.597656 38.210938 L 130.109375 38.894531 C 119.417969 39.542969 113.632812 43.921875 113.632812 51.53125 C 113.632812 59.21875 119.605469 64.320312 128.167969 64.320312 Z M 130.640625 57.277344 C 125.734375 57.277344 122.613281 54.917969 122.613281 51.304688 C 122.613281 47.574219 125.617188 45.40625 131.363281 45.0625 L 141.597656 44.414062 L 141.597656 47.765625 C 141.597656 53.320312 136.882812 57.277344 130.640625 57.277344 Z M 161.84375 80 C 170.820312 80 175.046875 76.574219 178.734375 66.183594 L 194.90625 20.816406 L 185.546875 20.816406 L 174.703125 55.871094 L 174.511719 55.871094 L 163.667969 20.816406 L 154.042969 20.816406 L 169.640625 64.015625 L 168.804688 66.640625 C 167.398438 71.09375 165.113281 72.808594 161.042969 72.808594 C 160.320312 72.808594 158.914062 72.730469 158.339844 72.65625 L 158.339844 79.773438 C 158.875 79.925781 161.15625 80 161.84375 80 Z M 161.84375 80 "/>
</g>
</svg>
